<svg width="24" height="29" viewBox="0 0 24 29" fill="none" xmlns="http://www.w3.org/2000/svg">
<path opacity="0.4" d="M-0.000976562 26.2372V3C-0.000976562 1.34315 1.34217 0 2.99902 0H20.999C22.6559 0 23.999 1.34315 23.999 3L23.999 26.2372C23.999 28.1113 21.8421 29.164 20.3647 28.011L13.8448 22.075C12.7599 21.2283 11.2381 21.2283 10.1532 22.075L3.63335 28.011C2.15597 29.164 -0.000976562 28.1113 -0.000976562 26.2372Z" fill="#2662FA"/>
<path d="M2.99902 0H20.999C22.6559 0 23.999 1.34315 23.999 3V7.5H-0.000976562V3C-0.000976562 1.34315 1.34217 0 2.99902 0Z" fill="#2662FA"/>
</svg>
