<svg width="36" height="36" viewBox="0 0 36 36" fill="none" xmlns="http://www.w3.org/2000/svg">
<path fill-rule="evenodd" clip-rule="evenodd" d="M6.00113 12.6755C6.00038 12.6135 6 12.5514 6 12.4893H6.01449C6.00758 12.5511 6.00312 12.6132 6.00113 12.6755ZM6.00604 12.9189C6.15934 18.361 9.21459 22.9852 13.5 24.9236V30.0163C13.5 32.2314 15.8469 33.6721 17.8416 32.6815L20.8416 31.1916C21.858 30.6868 22.5 29.655 22.5 28.5264V24.9236C26.8977 22.9344 30 18.1167 30 12.4893H29.9854C29.9924 12.5514 29.9968 12.6139 29.9988 12.6766C29.9978 12.7572 29.9962 12.8376 29.9939 12.9178C29.7915 15.7396 24.4991 18 18 18C11.5017 18 6.20985 15.7402 6.00604 12.9189Z" fill="#2662FA"/>
<ellipse opacity="0.4" cx="18" cy="12.75" rx="12" ry="5.25" fill="#2662FA"/>
<path fill-rule="evenodd" clip-rule="evenodd" d="M21 6.375C21.6213 6.375 22.125 6.87868 22.125 7.5V10.5C22.125 11.1213 21.6213 11.625 21 11.625C20.3787 11.625 19.875 11.1213 19.875 10.5V7.5C19.875 6.87868 20.3787 6.375 21 6.375Z" fill="#2662FA"/>
<path fill-rule="evenodd" clip-rule="evenodd" d="M15 9.375C15.6213 9.375 16.125 9.87868 16.125 10.5V12C16.125 12.6213 15.6213 13.125 15 13.125C14.3787 13.125 13.875 12.6213 13.875 12V10.5C13.875 9.87868 14.3787 9.375 15 9.375Z" fill="#2662FA"/>
<path fill-rule="evenodd" clip-rule="evenodd" d="M15 1.875C15.6213 1.875 16.125 2.37868 16.125 3V6C16.125 6.62132 15.6213 7.125 15 7.125C14.3787 7.125 13.875 6.62132 13.875 6V3C13.875 2.37868 14.3787 1.875 15 1.875Z" fill="#2662FA"/>
</svg>
