<svg width="43" height="43" viewBox="0 0 43 43" fill="none" xmlns="http://www.w3.org/2000/svg">
<path d="M27.2426 18.7574L35 11M11 35L18.7574 27.2426M27.2426 27.2426L35 35M11 11L18.7574 18.7574M17 8H29C33.9706 8 38 12.0294 38 17V29C38 33.9706 33.9706 38 29 38H17C12.0294 38 8 33.9706 8 29V17C8 12.0294 12.0294 8 17 8ZM29 23C29 26.3137 26.3137 29 23 29C19.6863 29 17 26.3137 17 23C17 19.6863 19.6863 17 23 17C26.3137 17 29 19.6863 29 23Z" stroke="#2662FA" stroke-width="2" stroke-linecap="round"/>
<circle opacity="0.2" cx="17" cy="17" r="17" fill="#2662FA"/>
</svg>
