<svg width="41" height="41" viewBox="0 0 41 41" fill="none" xmlns="http://www.w3.org/2000/svg">
<g clip-path="url(#clip0_1161_202)">
<path d="M12.5234 18.3594C12.5234 24.175 17.2547 28.9063 23.0703 28.9063C28.886 28.9063 33.6172 24.175 33.6172 18.3594C33.6172 12.5438 28.886 7.8125 23.0703 7.8125C17.2547 7.8125 12.5234 12.5438 12.5234 18.3594ZM23.0703 9.21875C28.1106 9.21875 32.211 13.3191 32.211 18.3594C32.211 23.3997 28.1106 27.5 23.0703 27.5C18.0301 27.5 13.9297 23.3997 13.9297 18.3594C13.9297 13.3191 18.0301 9.21875 23.0703 9.21875Z" fill="#2662FA"/>
<path d="M16.5587 17.106L19.2842 19.7913L18.6571 23.5654C18.6135 23.8282 18.722 24.093 18.9376 24.2496C19.1529 24.4061 19.4383 24.4273 19.6747 24.3048L23.0704 22.5415L26.4657 24.3048C26.7002 24.4264 26.9856 24.4075 27.2029 24.2496C27.4185 24.093 27.527 23.8282 27.4833 23.5654L26.8562 19.7913L29.5817 17.106C29.7715 16.9192 29.8393 16.6412 29.7569 16.3877C29.6745 16.1345 29.4562 15.9497 29.1928 15.9098L25.4104 15.3405L23.699 11.9179C23.5801 11.6798 23.3365 11.5293 23.0704 11.5293C22.8039 11.5293 22.5606 11.6798 22.4414 11.9179L20.73 15.3405L16.9477 15.9098C16.6843 15.9494 16.4659 16.1345 16.3835 16.3877C16.3011 16.6412 16.3692 16.9192 16.5587 17.106ZM21.3005 16.6767C21.5268 16.6426 21.7223 16.5006 21.8248 16.296L23.0704 13.8046L24.3159 16.296C24.4184 16.5006 24.6139 16.6426 24.8403 16.6767L27.5932 17.0911L25.6093 19.0453C25.4464 19.206 25.3717 19.4359 25.4091 19.6617L25.8656 22.4085L23.3942 21.1253C23.2928 21.0726 23.1816 21.0462 23.0704 21.0462C22.9591 21.0462 22.8479 21.0726 22.7463 21.1253L20.2749 22.4085L20.7314 19.6617C20.769 19.4359 20.6943 19.206 20.5311 19.0453L18.5475 17.0911L21.3005 16.6767Z" fill="#2662FA"/>
<path d="M23.7734 5.70313C23.7734 6.09149 23.4587 6.40625 23.0703 6.40625C22.6819 6.40625 22.3672 6.09149 22.3672 5.70313C22.3672 5.31476 22.6819 5 23.0703 5C23.4587 5 23.7734 5.31476 23.7734 5.70313Z" fill="#2662FA"/>
<path d="M19.7566 5.41463C13.8418 6.92443 9.71094 12.2476 9.71094 18.3596C9.71094 22.1556 11.307 25.7325 14.1088 28.2657L9.87271 35.7312C9.73648 35.9715 9.75351 36.2692 9.91611 36.4923C10.0787 36.7155 10.3567 36.8229 10.6272 36.7666L15.4378 35.7677L17.1286 40.5322C17.2204 40.7915 17.4552 40.973 17.7293 40.9975C18.0034 41.0219 18.2663 40.8838 18.4022 40.6445L23.0703 32.4377L27.7382 40.6445C27.864 40.8656 28.098 40.9999 28.349 40.9999C28.3696 40.9999 28.3905 40.9991 28.4111 40.9975C28.6852 40.973 28.92 40.7912 29.012 40.5322L30.7025 35.7677L35.5132 36.7666C35.7835 36.8227 36.0617 36.7153 36.2243 36.4923C36.3872 36.2692 36.4039 35.9715 36.2677 35.7312L32.0316 28.2657C34.8334 25.7325 36.4295 22.1556 36.4295 18.3596C36.4295 12.2476 32.2986 6.92443 26.3841 5.41463C26.0075 5.3185 25.6249 5.54564 25.5288 5.92192C25.4327 6.2982 25.6598 6.68108 26.0361 6.77721C31.3277 8.12798 35.0235 12.8908 35.0235 18.3596C35.0235 25.0154 29.6179 30.3127 23.0703 30.3127C16.5181 30.3127 11.1172 25.011 11.1172 18.3596C11.1172 12.8908 14.8127 8.12798 20.1043 6.77721C20.4806 6.68108 20.7077 6.2982 20.6119 5.92192C20.5157 5.54564 20.1331 5.3185 19.7566 5.41463ZM17.94 38.6134L16.5582 34.7196C16.4406 34.3884 16.0968 34.1947 15.7526 34.2661L11.8626 35.0739L15.2151 29.1655C17.1698 30.5865 19.4844 31.4523 21.8912 31.6665L17.94 38.6134ZM30.3878 34.2661C30.0439 34.1947 29.6998 34.3884 29.5822 34.7196L28.2007 38.6134L24.2492 31.6665C26.6563 31.4523 28.9706 30.5865 30.9256 29.1655L34.2781 35.0739L30.3878 34.2661Z" fill="#2662FA"/>
</g>
<circle opacity="0.2" cx="17" cy="17" r="17" fill="#2662FA"/>
<defs>
<clipPath id="clip0_1161_202">
<rect width="36" height="36" fill="white" transform="translate(5 5)"/>
</clipPath>
</defs>
</svg>
