<svg width="43" height="43" viewBox="0 0 43 43" fill="none" xmlns="http://www.w3.org/2000/svg">
<path d="M36.3333 21.3333H9.66665M36.3333 21.3333C38.1743 21.3333 39.6666 22.8257 39.6666 24.6667V31.3333C39.6666 35.0152 36.6819 38 33 38H13C9.31808 38 6.33331 35.0152 6.33331 31.3333V24.6667C6.33331 22.8257 7.8257 21.3333 9.66665 21.3333M36.3333 21.3333V18C36.3333 16.1591 34.8409 14.6667 33 14.6667M9.66665 21.3333V18C9.66665 16.1591 11.159 14.6667 13 14.6667M33 14.6667H13M33 14.6667V11.3333C33 9.49238 31.5076 8 29.6666 8H16.3333C14.4924 8 13 9.49238 13 11.3333V14.6667M19.6666 26.3333H26.3333" stroke="#2662FA" stroke-width="2" stroke-linecap="round"/>
<circle opacity="0.2" cx="17" cy="17" r="17" fill="#2662FA"/>
</svg>
