<svg width="24" height="24" viewBox="0 0 24 24" fill="none" xmlns="http://www.w3.org/2000/svg">
<path d="M13 2V6C13 8.20914 14.7909 10 17 10L21 10M3 6L3 18C3 20.2091 4.79086 22 7 22H17C19.2091 22 21 20.2091 21 18V11.6569C21 10.596 20.5786 9.57857 19.8284 8.82843L14.1716 3.17157C13.4214 2.42143 12.404 2 11.3431 2L7 2C4.79086 2 3 3.79086 3 6Z" stroke="white" stroke-linejoin="round"/>
<path d="M6.4375 18V13.7051H7.8291C8.35645 13.7051 8.7002 13.7266 8.86035 13.7695C9.10645 13.834 9.3125 13.9746 9.47852 14.1914C9.64453 14.4062 9.72754 14.6846 9.72754 15.0264C9.72754 15.29 9.67969 15.5117 9.58398 15.6914C9.48828 15.8711 9.36621 16.0127 9.21777 16.1162C9.07129 16.2178 8.92188 16.2852 8.76953 16.3184C8.5625 16.3594 8.2627 16.3799 7.87012 16.3799H7.30469V18H6.4375ZM7.30469 14.4316V15.6504H7.7793C8.12109 15.6504 8.34961 15.6279 8.46484 15.583C8.58008 15.5381 8.66992 15.4678 8.73438 15.3721C8.80078 15.2764 8.83398 15.165 8.83398 15.0381C8.83398 14.8818 8.78809 14.7529 8.69629 14.6514C8.60449 14.5498 8.48828 14.4863 8.34766 14.4609C8.24414 14.4414 8.03613 14.4316 7.72363 14.4316H7.30469Z" fill="white"/>
<path d="M10.4365 13.7051H12.0215C12.3789 13.7051 12.6514 13.7324 12.8389 13.7871C13.0908 13.8613 13.3066 13.9932 13.4863 14.1826C13.666 14.3721 13.8027 14.6045 13.8965 14.8799C13.9902 15.1533 14.0371 15.4912 14.0371 15.8936C14.0371 16.2471 13.9932 16.5518 13.9053 16.8076C13.7979 17.1201 13.6445 17.373 13.4453 17.5664C13.2949 17.7129 13.0918 17.8271 12.8359 17.9092C12.6445 17.9697 12.3887 18 12.0684 18H10.4365V13.7051ZM11.3037 14.4316V17.2764H11.9512C12.1934 17.2764 12.3682 17.2627 12.4756 17.2354C12.6162 17.2002 12.7324 17.1406 12.8242 17.0566C12.918 16.9727 12.9941 16.835 13.0527 16.6436C13.1113 16.4502 13.1406 16.1875 13.1406 15.8555C13.1406 15.5234 13.1113 15.2686 13.0527 15.0908C12.9941 14.9131 12.9121 14.7744 12.8066 14.6748C12.7012 14.5752 12.5674 14.5078 12.4053 14.4727C12.2842 14.4453 12.0469 14.4316 11.6934 14.4316H11.3037Z" fill="white"/>
<path d="M14.7812 18V13.7051H17.7256V14.4316H15.6484V15.4482H17.4414V16.1748H15.6484V18H14.7812Z" fill="white"/>
</svg>
