<svg width="29" height="25" viewBox="0 0 29 25" fill="none" xmlns="http://www.w3.org/2000/svg">
<path d="M16.8397 13.3682H11.8052V15.1043H16.8397V13.3682Z" fill="white"/>
<path d="M23.2637 15.1037H18.5763V15.9718C18.5763 16.4926 18.2291 16.8399 17.7082 16.8399H10.9376C10.4167 16.8399 10.0695 16.4926 10.0695 15.9718V15.1037H5.38211C4.34045 15.1037 3.29853 14.4093 2.9513 13.3676L0 4.33984V22.569C0 23.9579 1.0415 24.9995 2.43039 24.9995H26.0417C27.4305 24.9995 28.472 23.9579 28.472 22.569V4.33984L25.5207 13.3676C25.3471 14.4093 24.3054 15.1037 23.2637 15.1037Z" fill="white"/>
<path d="M10.2431 3.2986V2.43054C10.2431 1.90971 10.5903 1.56249 11.1111 1.56249H17.8822C18.403 1.56249 18.7502 1.90971 18.7502 2.43054V3.2986H10.2431ZM17.7084 0H10.9378C9.54886 0 8.50694 1.04166 8.50694 2.43054V3.2986H1.5625L4.68758 12.8472C4.86119 13.1944 5.20842 13.3681 5.55564 13.3681H10.2431V12.5C10.2431 11.9792 10.5903 11.632 11.1111 11.632H17.8822C18.403 11.632 18.7502 11.9792 18.7502 12.5V13.3681H23.4377C23.7849 13.3681 24.1321 13.1944 24.3057 12.8472L27.4308 3.2986H20.4864V2.43054C20.1391 1.04166 19.0973 0 17.7084 0Z" fill="white"/>
</svg>
