<svg width="29" height="30" viewBox="0 0 29 30" fill="none" xmlns="http://www.w3.org/2000/svg">
<path d="M25.1592 0.918392H22.506C22.506 0.408188 22.0979 0 21.5877 0H7.40392C6.89372 0 6.48565 0.408188 6.48565 0.918392H3.83249C1.48556 0.918392 -0.351126 3.0613 0.0570371 5.30619L1.28148 12.449C1.38352 12.8572 1.68969 13.1633 2.09785 13.1633H5.56739C6.28167 13.1633 6.89372 13.7756 6.89372 14.4899C6.89372 15.2041 6.28167 15.8163 5.56739 15.8163C5.05718 15.8163 4.64887 16.2245 4.64887 16.7347C4.64887 17.2449 5.05718 17.6531 5.56739 17.6531C7.91432 17.6531 9.44479 15.1021 8.2203 13.0613C8.7305 13.6735 9.2408 14.1837 9.85305 14.5919C10.8735 15.3062 11.3837 16.4286 11.1796 17.6531L10.9753 19.4898H17.8123L17.608 17.5511C17.506 16.3266 17.9142 15.2041 18.9346 14.4899C19.5468 14.0817 20.057 13.5715 20.4652 13.0613C19.2407 15.1021 20.7714 17.7551 23.1183 17.7551C23.6285 17.7551 24.0366 17.3469 24.0366 16.8367C24.0366 16.3265 23.6285 15.9183 23.1183 15.9183C22.4041 15.9183 21.7918 15.3062 21.7918 14.5919C21.7918 13.8776 22.4041 13.2653 23.1183 13.2653H26.5876C26.9958 13.2653 27.404 12.9592 27.404 12.5511L28.6284 5.40821C29.2407 3.06127 27.5061 0.918392 25.1592 0.918392ZM5.66928 11.5307H2.91423L1.89382 5.10204C1.68974 3.87755 2.60811 2.75517 3.93463 2.75517H6.58779V8.06124C6.58779 9.69389 7.0978 11.2245 7.91412 12.5511C7.40392 11.8368 6.58764 11.5307 5.66928 11.5307ZM18.4244 6.42862L17.0978 7.75507L17.404 9.59185C17.506 10.3061 16.7918 10.8164 16.1795 10.5102L14.5468 9.69387L12.9143 10.5102C12.302 10.8164 11.4857 10.3061 11.6898 9.59185L11.9958 7.75507L10.6694 6.42862C10.1592 5.91841 10.4653 5.00005 11.1796 4.89801L13.0162 4.59183L13.8325 2.95921C14.1387 2.34696 15.057 2.34696 15.3631 2.95921L16.1795 4.59183L18.0163 4.89801C18.6285 5.00005 18.9346 5.91841 18.4244 6.42862ZM27.0978 5.10204L26.0774 11.5307H23.3224C22.404 11.5307 21.6898 11.9388 21.0775 12.449C21.9959 11.1225 22.4041 9.59188 22.4041 7.95923V2.65303H25.057C26.3835 2.75507 27.3019 3.87755 27.0978 5.10204Z" fill="white"/>
<path d="M14.7519 5.81684L14.5476 5.30664C14.3435 5.51072 14.2416 6.22491 13.6293 6.22491L13.1191 6.32705C13.3232 6.53113 13.8335 6.83723 13.7315 7.44947L13.6293 7.95967C14.0375 7.75559 14.4457 7.4494 14.9559 7.75552L15.4661 7.95967L15.364 7.44947C15.2619 6.83723 15.7722 6.53113 15.9763 6.32705C15.6702 6.32705 15.058 6.42909 14.7519 5.81684Z" fill="white"/>
<path d="M21.2818 21.9388C21.1797 21.5307 20.8736 21.2246 20.4654 21.2246H8.52669C8.11852 21.2246 7.71031 21.5307 7.71031 21.9388L6.58801 28.9797C6.48597 29.4899 6.89394 30.0001 7.40414 30.0001H21.588C22.0982 30.0001 22.5064 29.4899 22.4043 28.9797L21.2818 21.9388ZM17.098 26.5307H11.7919C11.2817 26.5307 10.8737 26.1225 10.8737 25.6123C10.8737 25.1021 11.2817 24.694 11.7919 24.694H17.098C17.6082 24.694 18.0165 25.1021 18.0165 25.6123C18.0165 26.1225 17.6082 26.5307 17.098 26.5307Z" fill="white"/>
</svg>
