<svg width="29" height="30" viewBox="0 0 29 30" fill="none" xmlns="http://www.w3.org/2000/svg">
<path d="M3.87495 6.17223C4.16203 6.45931 4.73612 6.31576 4.87966 6.02868C7.17632 3.15787 10.4778 1.43541 14.2098 1.43541C17.9419 1.43541 21.2433 3.15787 23.54 6.02868C23.6835 6.17222 23.9708 6.31578 24.1143 6.31578C24.2579 6.31578 24.4011 6.31577 24.5447 6.17223C24.8318 5.88515 24.9754 5.45451 24.6884 5.16743C22.1046 1.86599 18.3725 0 14.2098 0C10.0471 0 6.17146 1.86599 3.73127 5.16743C3.44419 5.45451 3.44433 5.88515 3.87495 6.17223Z" fill="white"/>
<path d="M22.248 10.1911C22.248 11.483 23.2526 12.4878 24.5445 12.4878C25.8364 12.4878 26.8413 11.483 26.8413 10.1911C26.8413 8.89928 25.8364 7.89453 24.5445 7.89453C23.2526 7.89453 22.248 8.89928 22.248 10.1911Z" fill="white"/>
<path d="M26.9848 13.3491L26.4104 13.2056C26.2669 13.2056 25.98 13.2056 25.8364 13.3491L24.688 14.2104L23.5396 13.3491C23.3961 13.2056 23.1092 13.2056 22.9656 13.2056L22.3912 13.3491C21.3865 13.6362 20.8125 14.4974 20.8125 15.5022V19.0907C20.8125 19.2343 20.8123 19.3778 20.9558 19.5213L22.1042 21.3874V26.1242C22.1042 26.5549 22.3913 26.8419 22.8219 26.8419H26.8411C27.2718 26.8419 27.5588 26.5549 27.5588 26.1242V21.3874L28.7072 19.5213C28.8508 19.3778 28.8506 19.2343 28.8506 19.0907V15.5022C28.5635 14.641 27.9896 13.6362 26.9848 13.3491Z" fill="white"/>
<path d="M3.73199 12.6314C5.02385 12.6314 6.02878 11.6266 6.02878 10.3347C6.02878 9.04288 5.02385 8.03809 3.73199 8.03809C2.44012 8.03809 1.43555 9.04288 1.43555 10.3347C1.43555 11.6266 2.44012 12.6314 3.73199 12.6314Z" fill="white"/>
<path d="M6.17232 13.3491L5.59795 13.2056C5.31087 13.2056 5.16747 13.2056 5.02392 13.3491L3.87553 14.2104L2.72713 13.3491C2.58359 13.2056 2.29665 13.2056 2.15311 13.2056L1.57874 13.3491C0.573953 13.6362 1.7944e-09 14.4974 1.7944e-09 15.5022V19.0907C1.7944e-09 19.2343 -0.000210267 19.3778 0.14333 19.5213L1.29173 21.3874V26.1242C1.29173 26.5549 1.57881 26.8419 2.00943 26.8419H6.02864C6.45926 26.8419 6.74634 26.5549 6.74634 26.1242V21.3874L7.89474 19.5213C8.03828 19.3778 8.03807 19.2343 8.03807 19.0907V15.5022C7.75099 14.641 7.17711 13.6362 6.17232 13.3491Z" fill="white"/>
<path d="M17.224 6.88985C17.224 5.16736 15.7884 3.87549 14.2095 3.87549C12.487 3.87549 11.1953 5.3109 11.1953 6.88985C11.1953 8.61234 12.6305 9.90422 14.2095 9.90422C15.7884 9.90422 17.224 8.61234 17.224 6.88985Z" fill="white"/>
<path d="M17.5128 11.4834L16.6514 11.1963C16.5079 11.1963 16.3644 11.1963 16.3644 11.3398L14.4983 16.3638C14.3548 16.6508 13.9243 16.6508 13.9243 16.3638L12.0582 11.3398C12.0582 11.1963 11.9147 11.1963 11.7712 11.1963L10.7665 11.4834C9.61816 11.914 8.90039 12.9188 8.90039 14.0671V19.3781V19.5216L10.7665 22.3924V29.713C10.7665 29.8566 10.91 30.0001 11.0535 30.0001H16.9388C17.0824 30.0001 17.2258 29.8566 17.2258 29.713V22.3924L19.0919 19.5216V19.3781V14.0671C19.379 12.7752 18.6612 11.7705 17.5128 11.4834Z" fill="white"/>
<path d="M14.9278 11.3398C14.7843 11.1963 14.7844 11.1963 14.6408 11.1963H13.7794C13.6359 11.1963 13.4924 11.1963 13.4924 11.3398C13.3489 11.4834 13.3489 11.6269 13.4924 11.7704L13.9231 12.4881L13.7794 14.2107L14.2101 15.359C14.2101 15.5025 14.3536 15.5025 14.4971 15.359L14.9278 14.2107L14.7845 12.4881L15.2148 11.7704C15.0713 11.6269 14.9278 11.4834 14.9278 11.3398Z" fill="white"/>
</svg>
